<svg style="object-fit:cover" id="my-svg" version="1" baseProfile="full" width="100%" height="100%" viewBox="0 0 1280 569" xmlns="http://www.w3.org/2000/svg"><rect width="1280" height="569" fill="#000"/><defs><linearGradient id="linear-gradient" x1="0" x2="1" y1="0" y2="1"><stop offset="0%" stop-color="#02042790"/><stop offset="100%" stop-color="#050d3390"/></linearGradient></defs><path transform="scale(-1, -1)" style="transform-origin:center" d="M 0,569 V 0,113 C 83.15811965811963,104.94358974358974 166.31623931623926,96.8871794871795 244,98 C 321.68376068376074,99.1128205128205 393.89316239316247,109.3948717948718 463,107 C 532.1068376068375,104.6051282051282 598.1111111111111,89.53333333333333 663,79 C 727.8888888888889,68.46666666666667 791.6623931623932,62.47179487179487 850,80 C 908.3376068376068,97.52820512820513 961.2393162393162,138.5794871794872 1032,148 C 1102.7606837606838,157.4205128205128 1191.3803418803418,135.21025641025642 1280,113 C 1280,113 1280,569 1280,569 Z" stroke="none" stroke-width="0" fill="url(#linear-gradient)" class="transition-all duration-300 ease-in-out delay-150"/><defs><linearGradient id="linear-gradient" x1="0" x2="1" y1="0" y2="1"><stop offset="0%" stop-color="#020427ff"/><stop offset="100%" stop-color="#050d33ff"/></linearGradient></defs><path transform="scale(-1, -1)" style="transform-origin:center" d="M 0,569 V 0,170 C 63.0042735042735,177.5897435897436 126.008547008547,185.17948717948715 192,194 C 257.991452991453,202.82051282051285 326.97008547008545,212.87179487179486 409,202 C 491.02991452991455,191.12820512820514 586.1111111111111,159.33333333333331 656,144 C 725.8888888888889,128.66666666666669 770.5854700854701,129.79487179487182 828,139 C 885.4145299145299,148.20512820512818 955.5470085470085,165.48717948717947 1033,172 C 1110.4529914529915,178.51282051282053 1195.2264957264956,174.25641025641028 1280,170 C 1280,170 1280,569 1280,569 Z" stroke="none" stroke-width="0" fill="url(#linear-gradient)" class="transition-all duration-300 ease-in-out delay-150"/></svg>