<svg style="object-fit:cover" id="my-svg" version="1" baseProfile="full" width="100%" height="100%" viewBox="0 0 1280 569" xmlns="http://www.w3.org/2000/svg"><rect width="1280" height="569" fill="#000"/><defs><linearGradient id="linear-gradient" x1="1" x2="0" y1="0.5" y2="0.5"><stop offset="0%" stop-color="#19007580"/><stop offset="100%" stop-color="#0d112180"/></linearGradient></defs><path transform="scale(1, -1)" style="transform-origin:center" d="M 0,569 V 0,56 C 119.23809523809521,65.35714285714286 238.47619047619042,74.71428571428571 332,70 C 425.5238095238096,65.28571428571429 493.33333333333337,46.5 602,39 C 710.6666666666666,31.500000000000004 860.1904761904761,35.28571428571429 980,40 C 1099.8095238095239,44.71428571428571 1189.904761904762,50.357142857142854 1280,56 C 1280,56 1280,569 1280,569 Z" stroke="none" stroke-width="0" fill="url(#linear-gradient)" class="transition-all duration-300 ease-in-out delay-150"/><defs><linearGradient id="linear-gradient" x1="1" x2="0" y1="0.5" y2="0.5"><stop offset="0%" stop-color="#19007590"/><stop offset="100%" stop-color="#0d112190"/></linearGradient></defs><path transform="scale(1, -1)" d="M 0,569 V 0,85 C 85.13095238095235,90.96428571428572 170.2619047619047,96.92857142857143 272,98 C 373.7380952380953,99.07142857142857 492.08333333333337,95.25 603,87 C 713.9166666666666,78.75 817.4047619047619,66.07142857142857 929,65 C 1040.595238095238,63.92857142857143 1160.297619047619,74.46428571428572 1280,85 C 1280,85 1280,569 1280,569 Z" stroke="none" stroke-width="0" fill="url(#linear-gradient)" class="transition-all duration-300 ease-in-out delay-150" style="transform-origin: center center;"/><defs><linearGradient id="linear-gradient" x1="1" x2="0" y1="0.5" y2="0.5"><stop offset="0%" stop-color="#190075ff"/><stop offset="100%" stop-color="#0d1121ff"/></linearGradient></defs><path transform="scale(1, -1)" d="M 0,569 V 0,128 C 109.41666666666666,118.28571428571428 218.83333333333331,108.57142857142857 333,112 C 447.1666666666667,115.42857142857143 566.0833333333334,132 655,133 C 743.9166666666666,134 802.8333333333333,119.42857142857143 902,116 C 1001.1666666666667,112.57142857142857 1140.5833333333335,120.28571428571428 1280,128 C 1280,128 1280,569 1280,569 Z" stroke="none" stroke-width="0" fill="url(#linear-gradient)" class="transition-all duration-300 ease-in-out delay-150" style="transform-origin: center center;"/></svg>